<svg width="16" height="16" xmlns="http://www.w3.org/2000/svg"><g fill="none" fill-rule="evenodd"><path fill="#FFF" d="M0 0h16v16H0z"/><path d="M9.581 8.219 9.435 8l3.512-5.487A.333.333 0 0 0 12.666 2h-2.093a.333.333 0 0 0-.28.147l-7.24 11.338a.333.333 0 0 0 .28.513h2.093a.333.333 0 0 0 .28-.147L8 10.257l1.255 1.965 1.038 1.623a.333.333 0 0 0 .28.146h2.093a.333.333 0 0 0 .28-.512L9.581 8.22zM5.682 4.447v-2.11A.337.337 0 0 0 5.348 2h-2.01A.337.337 0 0 0 3 2.337v5.32a.337.337 0 0 0 .62.182l1.976-3.095a.548.548 0 0 0 .086-.293v-.004z" fill="#0D1010" fill-rule="nonzero"/></g></svg>